#!OML:ASF E:\Steps\Project 1\Capture day 1\Session 2\Subject.ASF
:FULLY-SPECIFIED
:DEGREES
431
root 8.97318 16.3229 8.79066 -158.236 0.153136 177.393
lowerback -22.088 -3.54714 -6.68442
upperback 0.29911 -3.22007 0.362354
thorax 13.1924 -2.03066 3.14171
lowerneck -4.80457 -2.03068 -1.1318
upperneck 18.198 -2.21528 2.49412
head 6.34769 -0.611025 0.86853
rclavicle 8.44835e-016 -8.15017e-015
rhumerus -42.3419 -22.7257 -70.8286
rradius 26.2554
rwrist 2.13146
rhand -9.60189 -50.5676
rfingers 7.12502
rthumb 16.367 -79.897
lclavicle 8.44835e-016 -8.15017e-015
lhumerus -23.2888 -2.60805 82.9021
lradius 32.6855
lwrist 1.02764
lhand -20.4905 -11.7442
lfingers 7.12502
lthumb 5.86622 18.1546
rfemur -48.3379 2.11782 15.849
rtibia 39.1063
rfoot -16.223 -14.4518
rtoes -39.1165
lfemur -22.7341 -7.82942 -24.5907
ltibia 12.8352
lfoot -8.65274 -1.81786
ltoes -35.4452
432
root 8.98371 16.3196 8.70236 -158.246 -0.13402 177.377
lowerback -21.9328 -3.62922 -6.70323
upperback 0.362413 -3.32909 0.395968
thorax 13.1949 -2.08138 3.15813
lowerneck -5.06686 -1.99693 -1.13935
upperneck 18.408 -2.17971 2.58313
head 6.46079 -0.581099 0.899951
rclavicle 1.49089e-014 5.56597e-015
rhumerus -42.5472 -23.4597 -70.2649
rradius 25.8209
rwrist 3.16837
rhand -9.62226 -50.8166
rfingers 7.12502
rthumb 16.3474 -80.1476
lclavicle 1.49089e-014 5.56597e-015
lhumerus -22.9631 -3.00881 82.8533
lradius 33.3047
lwrist 1.13857
lhand -20.6266 -12.1434
lfingers 7.12502
lthumb 5.73485 17.759
rfemur -47.8815 2.55766 15.3888
rtibia 36.236
rfoot -16.3077 -13.6447
rtoes -38.2712
lfemur -22.2655 -7.91498 -24.5722
ltibia 12.6637
lfoot -8.84548 -1.95773
ltoes -35.4729
433
root 8.99299 16.311 8.60631 -158.269 -0.298979 177.372
lowerback -21.8595 -3.6591 -6.66982
upperback 0.39192 -3.38018 0.418101
thorax 13.1933 -2.10237 3.14923
lowerneck -5.23557 -1.91787 -1.08333
upperneck 18.7622 -2.0473 2.54712
head 6.59991 -0.50039 0.890083
rclavicle 7.15625e-015 -8.54774e-015
rhumerus -42.8028 -23.743 -69.8711
rradius 25.406
rwrist 3.65584
rhand -9.56622 -50.7236
rfingers 7.12502
rthumb 16.4013 -80.0501
lclavicle 7.15625e-015 -8.54774e-015
lhumerus -22.7047 -3.43909 82.8869
lradius 33.7799
lwrist 0.990283
lhand -21.3912 -12.833
lfingers 7.12502
lthumb 4.99663 17.0881
rfemur -47.3421 3.05274 14.9685
rtibia 33.3015
rfoot -16.1773 -12.8271
rtoes -38.0161
lfemur -21.775 -7.97078 -24.5717
ltibia 12.5203
lfoot -9.08786 -2.00267
ltoes -36.0024
434
root 9.00467 16.3044 8.51007 -158.298 -0.406497 177.404
lowerback -21.8641 -3.71252 -6.63595
upperback 0.393289 -3.46487 0.47581
thorax 13.2093 -2.1411 3.16646
lowerneck -5.14008 -2.0475 -0.965565
upperneck 18.8912 -2.17453 2.26299
head 6.62256 -0.569368 0.771815
rclavicle -2.10712e-014 -2.98177e-015
rhumerus -43.1048 -23.9654 -69.4608
rradius 25.0381
rwrist 4.06017
rhand -9.26978 -50.4055
rfingers 7.12502
rthumb 16.6867 -79.7083
lclavicle -2.10712e-014 -2.98177e-015
lhumerus -22.6932 -3.74819 82.8902
lradius 34.4986
lwrist 1.18236
lhand -21.5958 -13.3743
lfingers 7.12502
lthumb 4.79907 16.5514
rfemur -46.7231 3.39101 14.7553
rtibia 30.3611
rfoot -15.8264 -11.9452
rtoes -38.5401
lfemur -21.3471 -7.94761 -24.5186
ltibia 12.4995
lfoot -9.26625 -2.1013
ltoes -36.0141
435
root 9.01764 16.2998 8.41763 -158.281 -0.498245 177.444
lowerback -21.9465 -3.78332 -6.63673
upperback 0.405255 -3.55843 0.536739
thorax 13.2858 -2.18792 3.2003
lowerneck -5.0248 -2.1521 -0.983438
upperneck 18.9517 -2.29269 2.19098
head 6.62319 -0.629049 0.744576
rclavicle 2.78299e-015 5.96354e-015
rhumerus -43.4506 -24.4656 -68.9672
rradius 24.7641
rwrist 4.47712
rhand -9.37929 -50.2189
rfingers 7.12502
rthumb 16.5813 -79.5305
lclavicle 2.78299e-015 5.96354e-015
lhumerus -22.7481 -3.97647 82.8466
lradius 35.2127
lwrist 1.37199
lhand -21.9603 -14.3284
lfingers 7.12502
lthumb 4.44709 15.6049
rfemur -45.9924 3.92386 14.4565
rtibia 27.2461
rfoot -15.2723 -11.0872
rtoes -38.3748
lfemur -21.0647 -7.96928 -24.4244
ltibia 12.6311
lfoot -9.42317 -2.17822
ltoes -34.8831
436
root 9.02839 16.288 8.31587 -158.237 -0.692419 177.398
lowerback -22.1644 -3.85233 -6.61033
upperback 0.422434 -3.64164 0.539331
thorax 13.4383 -2.22779 3.14943
lowerneck -4.73861 -2.24009 -1.38056
upperneck 18.7987 -2.4538 2.70961
head 6.53837 -0.694738 0.96718
rclavicle -6.80837e-015 -1.31198e-014
rhumerus -43.7692 -24.9465 -68.4901
rradius 24.378
rwrist 4.73911
rhand -9.68056 -50.3048
rfingers 7.12502
rthumb 16.2912 -79.6405
lclavicle -6.80837e-015 -1.31198e-014
lhumerus -22.765 -4.31492 82.8019
lradius 35.6913
lwrist 0.666079
lhand -23.4184 -16.5673
lfingers 7.12502
lthumb 3.039 13.3908
rfemur -45.6277 4.15304 14.2348
rtibia 25.087
rfoot -14.8538 -10.0811
rtoes -38.8291
lfemur -20.7646 -8.05406 -24.4655
ltibia 12.8077
lfoot -9.67637 -2.31421
ltoes -34.1622
437
root 9.03652 16.2724 8.20375 -158.381 -0.962498 177.196
lowerback -22.3645 -4.05565 -6.7148
upperback 0.427662 -3.87481 0.574216
thorax 13.5963 -2.34651 3.15738
lowerneck -4.15498 -2.29876 -1.93583
upperneck 18.6376 -2.53135 3.16104
head 6.39959 -0.733187 1.20326
rclavicle 3.30976e-014 -7.15625e-015
rhumerus -44.0101 -24.8991 -68.0944
rradius 23.8792
rwrist 4.91027
rhand -9.8437 -50.3197
rfingers 7.12502
rthumb 16.1342 -79.6682
lclavicle 3.30976e-014 -7.15625e-015
lhumerus -22.9823 -4.25102 82.7343
lradius 36.7407
lwrist 1.11341
lhand -22.9144 -16.875
lfingers 7.12502
lthumb 3.52573 13.0756
rfemur -44.9044 4.30196 13.9383
rtibia 23.0233
rfoot -14.2876 -9.35021
rtoes -39.6553
lfemur -20.0961 -8.07785 -24.7772
ltibia 12.8258
lfoot -9.9548 -2.59622
ltoes -34.5059
438
root 9.04767 16.2634 8.09713 -158.645 -1.09761 177.101
lowerback -22.2568 -3.91606 -6.66275
upperback 0.844072 -3.6437 0.388637
thorax 13.9829 -2.23291 2.99128
lowerneck -5.41218 -2.41798 -1.51641
upperneck 19.0016 -2.77822 3.11685
head 6.73679 -0.828455 1.09157
rclavicle -9.49197e-015 1.70955e-014
rhumerus -43.7176 -26.1746 -67.9297
rradius 23.5093
rwrist 5.39348
rhand -10.0837 -50.5195
rfingers 7.12502
rthumb 15.9031 -79.8865
lclavicle -9.49197e-015 1.70955e-014
lhumerus -21.9532 -4.92848 82.51
lradius 37.3505
lwrist 1.61921
lhand -22.1087 -16.2243
lfingers 7.12502
lthumb 4.30377 13.7119
rfemur -43.9711 4.65046 13.7293
rtibia 21.0024
rfoot -13.8164 -8.73421
rtoes -38.8032
lfemur -19.3385 -8.16249 -24.9078
ltibia 12.7976
lfoot -10.1359 -2.69842
ltoes -33.7468
439
root 9.06335 16.2553 8.00287 -158.763 -1.05785 177.184
lowerback -22.268 -4.02753 -6.74569
upperback 0.464705 -3.83135 0.580717
thorax 13.5828 -2.32791 3.20131
lowerneck -3.75472 -2.30547 -1.75947
upperneck 18.8966 -2.46404 2.919
head 6.4053 -0.68442 1.10743
rclavicle -1.00138e-014 9.34288e-015
rhumerus -44.6681 -25.5408 -67.2862
rradius 23.283
rwrist 5.62877
rhand -10.0812 -50.9861
rfingers 7.12502
rthumb 15.9055 -80.3529
lclavicle -1.00138e-014 9.34288e-015
lhumerus -22.922 -4.73948 82.5927
lradius 38.0409
lwrist 1.60128
lhand -21.6678 -15.4362
lfingers 7.12502
lthumb 4.72956 14.491
rfemur -43.3334 5.07913 13.7532
rtibia 19.318
rfoot -13.2674 -8.28424
rtoes -38.0224
lfemur -19.0045 -8.27034 -24.7442
ltibia 13.0997
lfoot -10.3182 -2.58527
ltoes -32.091
440
root 9.07955 16.2433 7.90734 -158.819 -1.08581 177.181
lowerback -22.4393 -3.93428 -6.68031
upperback 0.82989 -3.66524 0.503142
thorax 14.0834 -2.2512 3.11718
lowerneck -4.87476 -2.39091 -1.3958
upperneck 19.3227 -2.60873 2.66078
head 6.73349 -0.748938 0.945707
rclavicle 3.19049e-014 -4.96962e-015
rhumerus -44.2383 -26.6612 -67.0897
rradius 22.7977
rwrist 6.44552
rhand -9.69269 -51.2164
rfingers 7.12502
rthumb 16.2796 -80.553
lclavicle 3.19049e-014 -4.96962e-015
lhumerus -22.0824 -5.35939 82.436
lradius 38.5389
lwrist 1.63437
lhand -21.6178 -15.0714
lfingers 7.12502
lthumb 4.77783 14.8547
rfemur -42.85 5.27211 13.8213
rtibia 18.0992
rfoot -12.6865 -8.02049
rtoes -38.3458
lfemur -18.8479 -8.2869 -24.6905
ltibia 13.6551
lfoot -10.544 -2.62533
ltoes -31.4958
441
root 9.09841 16.2325 7.80422 -158.81 -1.22284 177.174
lowerback -22.7145 -4.1014 -6.73531
upperback 0.763041 -3.87699 0.636021
thorax 14.2016 -2.3605 3.21416
lowerneck -4.248 -2.24716 -1.67351
upperneck 19.1382 -2.3491 2.6159
head 6.56157 -0.645037 1.0011
rclavicle -1.44864e-014 6.4605e-015
rhumerus -44.4485 -26.5383 -66.7289
rradius 22.4932
rwrist 6.75931
rhand -9.28735 -50.8211
rfingers 7.12502
rthumb 16.6698 -80.1253
lclavicle -1.44864e-014 6.4605e-015
lhumerus -22.3664 -5.14836 82.4386
lradius 39.091
lwrist 1.66867
lhand -21.4702 -15.0828
lfingers 7.12502
lthumb 4.9203 14.8401
rfemur -42.4062 5.31527 13.9956
rtibia 17.2337
rfoot -12.1101 -7.95363
rtoes -38.8758
lfemur -18.7331 -8.36533 -24.6149
ltibia 14.2149
lfoot -10.8147 -2.69296
ltoes -31.557
442
root 9.11728 16.2205 7.69952 -158.806 -1.26258 177.181
lowerback -22.8681 -4.01338 -6.70039
upperback 0.913341 -3.73835 0.590238
thorax 14.4464 -2.29703 3.1812
lowerneck -4.79577 -2.23152 -1.55238
upperneck 19.3312 -2.36937 2.70399
head 6.71956 -0.638472 1.00422
rclavicle 3.98563e-014 7.7526e-015
rhumerus -44.4516 -27.4578 -66.3173
rradius 22.117
rwrist 7.18714
rhand -9.19288 -49.8024
rfingers 7.12502
rthumb 16.7608 -79.0989
lclavicle 3.98563e-014 7.7526e-015
lhumerus -21.9007 -5.43901 82.3658
lradius 39.4429
lwrist 1.73408
lhand -21.3775 -15.0176
lfingers 7.12502
lthumb 5.00981 14.9032
rfemur -41.9472 5.24598 14.3165
rtibia 16.5926
rfoot -11.5382 -8.01273
rtoes -39.0232
lfemur -18.5979 -8.43972 -24.562
ltibia 14.8036
lfoot -11.1532 -2.70001
ltoes -31.1082
443
root 9.13502 16.2064 7.59525 -158.951 -1.30172 177.116
lowerback -23.0485 -3.98551 -6.67828
upperback 1.17521 -3.66114 0.525218
thorax 14.8491 -2.26385 3.10728
lowerneck -5.43177 -2.19619 -1.40985
upperneck 19.6334 -2.33415 2.62333
head 6.92575 -0.614376 0.953634
rclavicle -1.5207e-014 4.57205e-015
rhumerus -44.2917 -28.2844 -66.0805
rradius 21.838
rwrist 7.67442
rhand -9.26365 -49.5551
rfingers 7.12502
rthumb 16.6926 -78.8574
lclavicle -1.5207e-014 4.57205e-015
lhumerus -21.4958 -5.54243 82.2562
lradius 39.8848
lwrist 1.55361
lhand -21.7485 -15.1079
lfingers 7.12502
lthumb 4.65162 14.8211
rfemur -41.3051 5.01731 14.6822
rtibia 16.1992
rfoot -11.1545 -8.08314
rtoes -38.9292
lfemur -18.2959 -8.48207 -24.6348
ltibia 15.4205
lfoot -11.5133 -2.67421
ltoes -31.914
444
root 9.15288 16.1934 7.48776 -159.076 -1.45179 177.098
lowerback -22.9622 -4.07205 -6.60631
upperback 1.07773 -3.81574 0.566247
thorax 14.6982 -2.32693 3.06326
lowerneck -5.23914 -2.11248 -1.47977
upperneck 19.7894 -2.14799 2.43878
head 6.93695 -0.53371 0.92304
rclavicle -4.64659e-015 9.93923e-015
rhumerus -44.5809 -27.9252 -66.0545
rradius 21.8983
rwrist 7.63221
rhand -9.41057 -49.8872
rfingers 7.12502
rthumb 16.5512 -79.2013
lclavicle -4.64659e-015 9.93923e-015
lhumerus -21.9708 -5.41074 82.1786
lradius 40.5272
lwrist 1.63462
lhand -21.9531 -15.2741
lfingers 7.12502
lthumb 4.45408 14.6591
rfemur -40.6572 4.69605 15.145
rtibia 16.0722
rfoot -10.8181 -8.00809
rtoes -38.2617
lfemur -18.0674 -8.57728 -24.6186
ltibia 16.1298
lfoot -11.8715 -2.57605
ltoes -34.2118
